<svg width="70" height="61" viewBox="0 0 70 61" fill="none" xmlns="http://www.w3.org/2000/svg">
<mask id="path-1-outside-1_25_193" maskUnits="userSpaceOnUse" x="0.527344" y="0.107422" width="70" height="61" fill="black">
<rect fill="white" x="0.527344" y="0.107422" width="70" height="61"/>
<path fill-rule="evenodd" clip-rule="evenodd" d="M35.3416 7.95739C32.875 5.49077 28.8758 5.49076 26.4092 7.95739L8.5046 25.862C8.38731 25.9792 8.27561 26.1 8.16948 26.2239C6.8164 27.3823 5.95892 29.1029 5.95892 31.0238C5.95892 32.0461 6.20178 33.0116 6.63295 33.8659C6.94001 34.5715 7.38207 35.2325 7.95914 35.8095L25.8637 53.7141C28.3303 56.1807 32.3295 56.1807 34.7962 53.7141C37.2628 51.2475 37.2628 47.2483 34.7962 44.7816L27.3545 37.34H58.2111C61.6995 37.34 64.5273 34.5121 64.5273 31.0238C64.5273 27.5355 61.6995 24.7076 58.2111 24.7076H27.5238L35.3416 16.8898C37.8082 14.4232 37.8082 10.424 35.3416 7.95739Z"/>
</mask>
<path fill-rule="evenodd" clip-rule="evenodd" d="M35.3416 7.95739C32.875 5.49077 28.8758 5.49076 26.4092 7.95739L8.5046 25.862C8.38731 25.9792 8.27561 26.1 8.16948 26.2239C6.8164 27.3823 5.95892 29.1029 5.95892 31.0238C5.95892 32.0461 6.20178 33.0116 6.63295 33.8659C6.94001 34.5715 7.38207 35.2325 7.95914 35.8095L25.8637 53.7141C28.3303 56.1807 32.3295 56.1807 34.7962 53.7141C37.2628 51.2475 37.2628 47.2483 34.7962 44.7816L27.3545 37.34H58.2111C61.6995 37.34 64.5273 34.5121 64.5273 31.0238C64.5273 27.5355 61.6995 24.7076 58.2111 24.7076H27.5238L35.3416 16.8898C37.8082 14.4232 37.8082 10.424 35.3416 7.95739Z" fill="white"/>
<path d="M26.4092 7.95739L22.7181 4.26629L22.7181 4.26629L26.4092 7.95739ZM35.3416 7.95739L31.6505 11.6485V11.6485L35.3416 7.95739ZM8.5046 25.862L12.1957 29.5531L12.1957 29.5531L8.5046 25.862ZM8.16948 26.2239L12.1337 29.62L11.871 29.9266L11.5643 30.1891L8.16948 26.2239ZM6.63295 33.8659L11.293 31.5139L11.36 31.6466L11.4193 31.7829L6.63295 33.8659ZM7.95914 35.8095L11.6502 32.1184L7.95914 35.8095ZM25.8637 53.7141L22.1726 57.4052L25.8637 53.7141ZM34.7962 53.7141L31.1051 50.023L31.1051 50.023L34.7962 53.7141ZM27.3545 37.34L23.6634 41.0311L14.7523 32.12H27.3545V37.34ZM27.5238 24.7076V29.9276H14.9216L23.8327 21.0165L27.5238 24.7076ZM35.3416 16.8898L31.6505 13.1988V13.1988L35.3416 16.8898ZM22.7181 4.26629C27.2232 -0.238871 34.5275 -0.238868 39.0327 4.2663L31.6505 11.6485C31.2224 11.2204 30.5283 11.2204 30.1003 11.6485L22.7181 4.26629ZM4.8135 22.1709L22.7181 4.26629L30.1003 11.6485L12.1957 29.5531L4.8135 22.1709ZM4.20527 22.8278C4.39853 22.6022 4.60134 22.383 4.81353 22.1708L12.1957 29.5531C12.1733 29.5755 12.1527 29.5978 12.1337 29.62L4.20527 22.8278ZM0.738922 31.0238C0.738922 27.5142 2.3126 24.3665 4.77461 22.2586L11.5643 30.1891C11.3202 30.3981 11.1789 30.6917 11.1789 31.0238H0.738922ZM1.97286 36.2179C1.18198 34.6509 0.738922 32.8816 0.738922 31.0238H11.1789C11.1789 31.2106 11.2216 31.3723 11.293 31.5139L1.97286 36.2179ZM4.26804 39.5006C3.22081 38.4534 2.41043 37.2446 1.84655 35.9489L11.4193 31.7829C11.4696 31.8984 11.5433 32.0115 11.6502 32.1184L4.26804 39.5006ZM22.1726 57.4052L4.26804 39.5006L11.6502 32.1184L29.5548 50.023L22.1726 57.4052ZM38.4873 57.4052C33.9821 61.9103 26.6778 61.9104 22.1726 57.4052L29.5548 50.023C29.9829 50.4511 30.677 50.4511 31.1051 50.023L38.4873 57.4052ZM38.4872 41.0905C42.9924 45.5957 42.9924 52.9 38.4872 57.4052L31.1051 50.023C31.5331 49.5949 31.5331 48.9008 31.1051 48.4727L38.4872 41.0905ZM31.0456 33.6489L38.4872 41.0905L31.1051 48.4727L23.6634 41.0311L31.0456 33.6489ZM58.2111 42.56H27.3545V32.12H58.2111V42.56ZM69.7473 31.0238C69.7473 37.3951 64.5824 42.56 58.2111 42.56V32.12C58.8166 32.12 59.3073 31.6292 59.3073 31.0238H69.7473ZM58.2111 19.4876C64.5824 19.4876 69.7473 24.6525 69.7473 31.0238H59.3073C59.3073 30.4184 58.8166 29.9276 58.2111 29.9276V19.4876ZM27.5238 19.4876H58.2111V29.9276H27.5238V19.4876ZM39.0327 20.5809L31.2149 28.3987L23.8327 21.0165L31.6505 13.1988L39.0327 20.5809ZM39.0327 4.2663C43.5379 8.77146 43.5379 16.0758 39.0327 20.5809L31.6505 13.1988C32.0786 12.7707 32.0786 12.0766 31.6505 11.6485L39.0327 4.2663Z" fill="#353535" mask="url(#path-1-outside-1_25_193)"/>
</svg>
