<svg width="97" height="96" viewBox="0 0 97 96" fill="none" xmlns="http://www.w3.org/2000/svg">
<circle cx="48.5" cy="48" r="48" fill="white"/>
<path d="M74.5 50.5C75.8807 50.5 77 49.3807 77 48C77 46.6193 75.8807 45.5 74.5 45.5L74.5 50.5ZM20.7322 46.2322C19.7559 47.2085 19.7559 48.7915 20.7322 49.7678L36.6421 65.6777C37.6184 66.654 39.2014 66.654 40.1777 65.6777C41.154 64.7014 41.154 63.1184 40.1777 62.1421L26.0355 48L40.1777 33.8579C41.154 32.8816 41.154 31.2986 40.1777 30.3223C39.2014 29.346 37.6184 29.346 36.6421 30.3223L20.7322 46.2322ZM74.5 45.5L22.5 45.5L22.5 50.5L74.5 50.5L74.5 45.5Z" fill="#575472"/>
</svg>
