<svg width="80" height="70" viewBox="0 0 80 70" fill="none" xmlns="http://www.w3.org/2000/svg">
<mask id="path-1-outside-1_10666_596" maskUnits="userSpaceOnUse" x="0.398438" y="0.386719" width="80" height="69" fill="black">
<rect fill="white" x="0.398438" y="0.386719" width="80" height="69"/>
<path fill-rule="evenodd" clip-rule="evenodd" d="M39.9453 8.51312C42.7805 5.67792 47.3772 5.67792 50.2125 8.51312L70.7924 29.0931C70.9272 29.2279 71.0556 29.3667 71.1776 29.5091C72.7329 30.8406 73.7185 32.8183 73.7185 35.0262C73.7185 36.2013 73.4393 37.3111 72.9437 38.293C72.5908 39.104 72.0827 39.8637 71.4194 40.5271L50.8394 61.107C48.0042 63.9422 43.4074 63.9422 40.5722 61.107C37.737 58.2718 37.737 53.675 40.5722 50.8398L49.1258 42.2862H13.6584C9.64885 42.2862 6.39844 39.0358 6.39844 35.0262C6.39844 31.0167 9.64885 27.7662 13.6584 27.7662H48.9312L39.9453 18.7803C37.1101 15.9451 37.1101 11.3483 39.9453 8.51312Z"/>
</mask>
<path fill-rule="evenodd" clip-rule="evenodd" d="M39.9453 8.51312C42.7805 5.67792 47.3772 5.67792 50.2125 8.51312L70.7924 29.0931C70.9272 29.2279 71.0556 29.3667 71.1776 29.5091C72.7329 30.8406 73.7185 32.8183 73.7185 35.0262C73.7185 36.2013 73.4393 37.3111 72.9437 38.293C72.5908 39.104 72.0827 39.8637 71.4194 40.5271L50.8394 61.107C48.0042 63.9422 43.4074 63.9422 40.5722 61.107C37.737 58.2718 37.737 53.675 40.5722 50.8398L49.1258 42.2862H13.6584C9.64885 42.2862 6.39844 39.0358 6.39844 35.0262C6.39844 31.0167 9.64885 27.7662 13.6584 27.7662H48.9312L39.9453 18.7803C37.1101 15.9451 37.1101 11.3483 39.9453 8.51312Z" fill="white"/>
<path d="M50.2125 8.51312L54.4551 4.27048V4.27048L50.2125 8.51312ZM39.9453 8.51312L44.1879 12.7558V12.7558L39.9453 8.51312ZM70.7924 29.0931L66.5498 33.3357L66.5498 33.3358L70.7924 29.0931ZM71.1776 29.5091L66.6211 33.4127L66.923 33.7651L67.2754 34.0668L71.1776 29.5091ZM72.9437 38.293L67.5873 35.5896L67.5103 35.7421L67.4421 35.8988L72.9437 38.293ZM71.4194 40.5271L67.1767 36.2844L71.4194 40.5271ZM50.8394 61.107L55.082 65.3497L50.8394 61.107ZM49.1258 42.2862L53.3684 46.5289L63.6111 36.2862H49.1258V42.2862ZM48.9312 27.7662V33.7662H63.4165L53.1738 23.5236L48.9312 27.7662ZM39.9453 18.7803L44.1879 14.5377L39.9453 18.7803ZM54.4551 4.27048C49.2767 -0.907871 40.881 -0.907867 35.7026 4.27048L44.1879 12.7558C44.68 12.2637 45.4778 12.2637 45.9698 12.7558L54.4551 4.27048ZM75.035 24.8504L54.4551 4.27048L45.9698 12.7558L66.5498 33.3357L75.035 24.8504ZM75.7341 25.6054C75.512 25.3462 75.2789 25.0943 75.035 24.8504L66.5498 33.3358C66.5755 33.3615 66.5992 33.3871 66.6211 33.4127L75.7341 25.6054ZM79.7185 35.0262C79.7185 30.9922 77.9096 27.3741 75.0797 24.9513L67.2754 34.0668C67.5561 34.3071 67.7185 34.6445 67.7185 35.0262H79.7185ZM78.3002 40.9965C79.2092 39.1953 79.7185 37.1616 79.7185 35.0262H67.7185C67.7185 35.2409 67.6694 35.4268 67.5873 35.5896L78.3002 40.9965ZM75.662 44.7697C76.8657 43.566 77.7972 42.1766 78.4454 40.6872L67.4421 35.8988C67.3844 36.0315 67.2996 36.1615 67.1767 36.2844L75.662 44.7697ZM55.082 65.3497L75.662 44.7697L67.1767 36.2844L46.5968 56.8644L55.082 65.3497ZM36.3296 65.3497C41.5079 70.528 49.9037 70.528 55.082 65.3497L46.5968 56.8644C46.1047 57.3564 45.3069 57.3564 44.8149 56.8644L36.3296 65.3497ZM36.3296 46.5972C31.1512 51.7756 31.1512 60.1713 36.3296 65.3497L44.8149 56.8644C44.3228 56.3723 44.3228 55.5745 44.8148 55.0825L36.3296 46.5972ZM44.8832 38.0436L36.3296 46.5972L44.8148 55.0825L53.3684 46.5289L44.8832 38.0436ZM13.6584 48.2862H49.1258V36.2862H13.6584V48.2862ZM0.398438 35.0262C0.398438 42.3495 6.33513 48.2862 13.6584 48.2862V36.2862C12.9626 36.2862 12.3984 35.7221 12.3984 35.0262H0.398438ZM13.6584 21.7662C6.33514 21.7662 0.398438 27.703 0.398438 35.0262H12.3984C12.3984 34.3304 12.9626 33.7662 13.6584 33.7662V21.7662ZM48.9312 21.7662H13.6584V33.7662H48.9312V21.7662ZM35.7026 23.0229L44.6886 32.0089L53.1738 23.5236L44.1879 14.5377L35.7026 23.0229ZM35.7026 4.27048C30.5243 9.44882 30.5243 17.8446 35.7026 23.0229L44.1879 14.5377C43.6958 14.0456 43.6958 13.2478 44.1879 12.7558L35.7026 4.27048Z" fill="#353535" mask="url(#path-1-outside-1_10666_596)"/>
</svg>
