<svg width="97" height="96" viewBox="0 0 97 96" fill="none" xmlns="http://www.w3.org/2000/svg">
<circle cx="48" cy="48" r="48" transform="matrix(-1 0 0 1 96.5 0)" fill="white"/>
<path d="M22.5 50.5C21.1193 50.5 20 49.3807 20 48C20 46.6193 21.1193 45.5 22.5 45.5L22.5 50.5ZM76.2678 46.2322C77.2441 47.2085 77.2441 48.7915 76.2678 49.7678L60.3579 65.6777C59.3816 66.654 57.7986 66.654 56.8223 65.6777C55.846 64.7014 55.846 63.1184 56.8223 62.1421L70.9645 48L56.8223 33.8579C55.846 32.8816 55.846 31.2986 56.8223 30.3223C57.7986 29.346 59.3816 29.346 60.3579 30.3223L76.2678 46.2322ZM22.5 45.5L74.5 45.5L74.5 50.5L22.5 50.5L22.5 45.5Z" fill="#575472"/>
</svg>
